<?xml version="1.0" standalone="no"?>
<!DOCTYPE svg PUBLIC "-//W3C//DTD SVG 20010904//EN"
 "http://www.w3.org/TR/2001/REC-SVG-20010904/DTD/svg10.dtd">
<svg version="1.0" xmlns="http://www.w3.org/2000/svg"
 width="1280.000000pt" height="720.000000pt" viewBox="0 0 1280.000000 720.000000"
 preserveAspectRatio="xMidYMid meet">

<g transform="translate(0.000000,720.000000) scale(0.100000,-0.100000)"
fill="#000000" stroke="none">
<path d="M11778 6824 c-5 -4 -8 -25 -8 -46 0 -37 1 -38 36 -38 21 0 33 4 29
10 -3 6 -15 10 -25 10 -14 0 -20 9 -22 36 -2 20 -6 32 -10 28z"/>
<path d="M11860 6801 c0 -45 10 -61 36 -61 25 0 48 37 42 67 -4 21 -23 16 -24
-6 -3 -55 -34 -65 -34 -11 0 16 -4 32 -10 35 -6 4 -10 -6 -10 -24z"/>
<path d="M11986 6805 c13 -20 14 -28 4 -40 -17 -20 -5 -31 16 -15 13 12 17 11
24 0 5 -8 12 -11 16 -7 4 3 1 13 -6 22 -10 12 -9 20 4 40 18 27 7 35 -14 10
-12 -14 -15 -14 -30 0 -25 23 -32 18 -14 -10z"/>
<path d="M12105 6806 c-32 -48 28 -91 69 -50 20 19 20 24 0 52 -20 29 -50 28
-69 -2z m62 -12 c3 -8 -2 -23 -11 -32 -14 -15 -18 -15 -31 -1 -9 9 -13 23 -9
32 8 21 43 22 51 1z"/>
<path d="M12226 6821 c-9 -13 -4 -81 6 -81 4 0 8 7 8 15 0 19 9 19 30 0 15
-13 16 -11 17 23 1 20 -4 40 -10 44 -16 10 -45 10 -51 -1z m44 -20 c0 -6 -4
-13 -10 -16 -5 -3 -10 1 -10 9 0 9 5 16 10 16 6 0 10 -4 10 -9z"/>
<path d="M12342 6791 c-7 -21 -12 -40 -12 -42 0 -2 16 -4 35 -5 19 0 35 3 35
7 0 15 -31 79 -39 79 -4 0 -13 -17 -19 -39z m32 -6 c3 -8 1 -15 -4 -15 -6 0
-10 7 -10 15 0 8 2 15 4 15 2 0 6 -7 10 -15z"/>
<path d="M417 6813 c-25 -24 8 -77 41 -66 20 8 14 20 -10 19 -17 -1 -23 5 -23
19 0 16 6 19 28 17 18 -2 26 1 22 7 -7 12 -48 15 -58 4z"/>
<path d="M514 6793 c-9 -34 19 -58 48 -42 41 22 29 69 -18 69 -17 0 -25 -7
-30 -27z m51 -9 c0 -10 -8 -20 -17 -22 -18 -3 -26 27 -11 42 12 11 28 0 28
-20z"/>
<path d="M628 6785 c-2 -19 0 -35 4 -35 4 0 8 10 9 23 l0 22 11 -22 c15 -30
24 -29 36 5 l10 27 1 -27 c1 -41 21 -34 21 7 0 41 -25 49 -39 13 l-8 -22 -12
22 c-17 32 -28 27 -33 -13z"/>
<path d="M760 6785 c0 -19 5 -35 10 -35 6 0 10 5 10 10 0 6 6 10 13 10 22 0
38 16 31 33 -4 11 -17 17 -35 17 -26 0 -29 -3 -29 -35z m44 16 c3 -5 -1 -11
-9 -15 -9 -3 -15 0 -15 9 0 16 16 20 24 6z"/>
<path d="M864 6785 c-18 -45 -18 -48 6 -33 16 10 24 10 40 0 24 -15 24 -12 6
33 -8 19 -20 35 -26 35 -6 0 -18 -16 -26 -35z"/>
<path d="M968 6785 c-2 -19 0 -35 4 -35 4 0 8 10 8 22 l0 21 23 -21 c32 -30
37 -28 37 13 0 19 -4 35 -10 35 -5 0 -10 -12 -10 -27 l-1 -28 -17 28 c-22 36
-29 34 -34 -8z"/>
<path d="M1080 6783 c0 -43 5 -41 13 5 4 18 2 32 -3 32 -6 0 -10 -16 -10 -37z"/>
<path d="M1158 6807 c6 -7 15 -24 20 -36 8 -23 9 -23 30 13 21 36 16 50 -9 20
-11 -14 -13 -14 -21 0 -5 9 -14 16 -20 16 -7 0 -7 -4 0 -13z"/>
<path d="M1292 6808 c-18 -18 -15 -46 7 -58 31 -16 53 -2 49 34 -3 34 -33 47
-56 24z m44 -26 c1 -15 -5 -22 -16 -22 -22 0 -32 24 -17 39 16 16 32 8 33 -17z"/>
<path d="M1397 6813 c-4 -3 -7 -19 -7 -35 0 -27 3 -29 33 -26 17 2 32 9 32 16
0 6 -4 12 -10 11 -5 -1 -9 -5 -7 -11 1 -5 -5 -8 -15 -6 -28 5 -23 43 5 42 12
0 22 3 22 8 0 10 -44 11 -53 1z"/>
<path d="M1497 6814 c-14 -14 -7 -53 12 -63 26 -14 54 8 49 40 -2 17 -10 25
-28 27 -14 2 -29 0 -33 -4z m45 -16 c7 -19 -2 -38 -17 -38 -21 0 -28 19 -15
35 15 18 26 19 32 3z"/>
<path d="M1640 6784 c0 -32 2 -35 26 -32 55 6 59 68 4 68 -28 0 -30 -3 -30
-36z m48 -2 c2 -15 -2 -22 -12 -22 -11 0 -16 9 -16 26 0 31 23 28 28 -4z"/>
<path d="M1748 6786 c-3 -28 0 -36 16 -40 12 -3 25 -1 30 4 7 7 2 10 -12 10
-26 0 -29 17 -4 23 16 4 16 5 0 6 -26 2 -22 19 5 24 20 4 19 4 -4 6 -23 1 -27
-3 -31 -33z"/>
<path d="M1830 6805 c0 -9 7 -18 15 -21 20 -8 19 -21 -2 -27 -11 -3 -7 -5 10
-6 31 -1 37 22 10 38 -16 9 -16 12 -3 21 12 8 11 10 -7 10 -14 0 -23 -6 -23
-15z"/>
<path d="M1913 6785 c0 -22 2 -30 4 -17 2 12 2 30 0 40 -3 9 -5 -1 -4 -23z"/>
<path d="M1965 6801 c-10 -33 5 -52 39 -49 35 3 44 31 11 36 -16 2 -17 1 -5
-7 18 -12 7 -26 -15 -17 -28 10 -13 41 18 39 15 -1 25 2 22 8 -11 17 -63 10
-70 -10z"/>
<path d="M2081 6783 c1 -33 2 -35 8 -13 l7 25 15 -22 c21 -34 39 -29 39 12 0
19 -4 35 -10 35 -5 0 -10 -10 -10 -22 l-1 -23 -18 23 c-26 30 -31 28 -30 -15z"/>
<path d="M411 6643 c0 -21 3 -32 6 -25 2 6 12 12 21 12 12 0 13 3 4 12 -17 17
-15 26 6 31 10 3 6 5 -10 6 -26 1 -28 -2 -27 -36z"/>
<path d="M504 6666 c-11 -28 1 -51 28 -54 31 -4 48 29 28 53 -16 19 -49 19
-56 1z m52 -35 c-10 -16 -36 -13 -43 5 -8 22 18 37 36 20 7 -8 10 -19 7 -25z"/>
<path d="M610 6645 c0 -19 5 -35 11 -35 6 0 8 9 3 23 l-6 22 24 -22 c33 -31
38 -29 38 12 0 19 -4 35 -10 35 -5 0 -10 -10 -10 -22 l-1 -23 -18 23 c-26 30
-31 28 -31 -13z"/>
<path d="M710 6669 c0 -5 5 -7 10 -4 6 4 10 -7 10 -24 0 -17 5 -31 10 -31 6 0
10 13 10 29 0 20 6 31 18 34 9 3 0 5 -20 6 -21 0 -38 -4 -38 -10z"/>
<path d="M11530 6635 c0 -30 3 -35 23 -34 16 1 18 2 5 6 -10 2 -18 8 -18 13 0
5 8 11 18 13 16 4 16 5 0 6 -26 2 -22 19 5 24 19 4 18 4 -5 6 -26 1 -28 -2
-28 -34z"/>
<path d="M11627 6664 c-4 -4 -7 -15 -7 -25 0 -13 6 -16 22 -11 14 3 19 2 14
-6 -4 -7 -2 -12 4 -12 17 0 7 54 -10 58 -9 1 -19 0 -23 -4z m28 -14 c3 -5 -1
-10 -10 -10 -9 0 -13 5 -10 10 3 6 8 10 10 10 2 0 7 -4 10 -10z"/>
<path d="M11722 6658 c-18 -18 -15 -36 8 -48 15 -8 25 -8 38 0 15 10 14 10 -4
5 -27 -7 -51 17 -32 32 7 6 20 13 28 16 11 4 9 6 -5 6 -12 1 -26 -4 -33 -11z"/>
<path d="M11845 6640 c-14 -26 -14 -30 -1 -30 9 0 13 6 10 14 -3 8 -1 17 5 21
6 3 16 -6 21 -21 6 -15 13 -24 16 -21 6 5 -23 67 -31 67 -2 0 -11 -13 -20 -30z"/>
<path d="M12063 6635 c0 -22 2 -30 4 -17 2 12 2 30 0 40 -3 9 -5 -1 -4 -23z"/>
<path d="M12138 6658 c5 -7 12 -22 15 -33 4 -16 5 -14 6 7 0 14 7 29 14 31 6
3 -1 6 -17 6 -22 1 -26 -2 -18 -11z"/>
<path d="M12240 6641 c0 -17 4 -33 10 -36 5 -3 7 0 4 9 -3 8 2 16 13 19 16 4
16 5 1 6 -10 0 -18 5 -18 10 0 5 8 12 18 14 13 4 11 5 -5 6 -19 1 -23 -4 -23
-28z"/>
<path d="M12340 6641 c0 -17 4 -31 9 -31 4 0 6 12 3 26 -4 21 -1 25 14 22 12
-2 19 -12 18 -26 0 -12 3 -22 8 -22 5 0 8 12 6 28 -2 21 -9 28 -30 30 -25 3
-28 0 -28 -27z"/>
<path d="M11950 6630 c0 -21 5 -30 16 -30 13 0 14 3 4 15 -7 8 -10 22 -6 30 3
8 1 15 -4 15 -6 0 -10 -13 -10 -30z"/>
<path d="M11990 6610 c0 -5 5 -10 10 -10 6 0 10 5 10 10 0 6 -4 10 -10 10 -5
0 -10 -4 -10 -10z"/>
<path d="M9916 4258 c-8 -18 -69 -166 -136 -328 -67 -162 -172 -416 -232 -565
-60 -148 -120 -289 -134 -312 -35 -60 -88 -100 -148 -111 -39 -7 -2 -10 154
-10 134 0 187 3 153 8 -88 13 -103 19 -114 47 -16 43 -6 75 121 400 9 22 9 22
47 3 83 -39 300 -80 431 -80 45 0 52 3 52 20 0 18 -7 20 -62 20 -35 0 -106 7
-158 15 -94 14 -269 60 -281 73 -6 6 229 583 242 596 3 4 27 -44 54 -106 26
-62 90 -214 142 -338 52 -124 126 -298 164 -387 67 -157 79 -202 60 -232 -5
-8 -40 -20 -78 -27 -61 -11 -40 -12 207 -12 241 0 268 1 215 12 -87 17 -100
28 -138 109 -41 86 -239 550 -404 946 -65 156 -124 286 -131 289 -7 2 -18 -11
-26 -30z"/>
<path d="M2140 4259 c0 -5 22 -9 49 -9 69 0 97 -13 110 -51 15 -42 15 -1138 1
-1190 -14 -49 -28 -59 -102 -68 -39 -5 149 -9 488 -10 l551 -1 6 107 c10 150
9 325 -2 319 -4 -3 -11 -36 -14 -73 -8 -104 -40 -179 -101 -239 -82 -80 -110
-87 -383 -92 l-232 -4 -6 44 c-3 24 -5 300 -3 613 2 462 6 575 17 597 16 32
57 48 122 48 27 0 49 4 49 8 0 5 -124 9 -275 9 -151 0 -275 -4 -275 -8z"/>
<path d="M3340 4260 c0 -6 22 -10 50 -10 62 0 96 -15 109 -49 6 -16 12 -187
14 -446 3 -372 5 -426 21 -475 58 -175 170 -287 340 -339 253 -78 511 11 613
213 47 93 53 150 53 581 1 282 5 410 13 434 17 49 53 72 125 78 34 3 62 10 62
14 0 13 -397 11 -405 -1 -4 -6 12 -10 42 -10 60 0 91 -16 120 -59 23 -34 23
-34 23 -430 0 -421 -6 -492 -46 -580 -54 -119 -140 -186 -284 -222 -247 -63
-440 62 -479 311 -14 86 -14 863 -1 912 15 51 42 68 112 68 32 0 58 4 58 9 0
6 -107 10 -270 10 -174 1 -270 -3 -270 -9z"/>
<path d="M4790 4259 c0 -5 23 -9 50 -9 56 0 93 -15 127 -52 12 -12 71 -99 131
-193 59 -93 149 -231 198 -305 49 -74 92 -140 96 -146 7 -11 -267 -408 -343
-497 -56 -66 -109 -98 -182 -113 -56 -11 -41 -12 163 -12 204 0 219 1 159 12
-97 17 -117 41 -94 109 16 46 316 471 325 460 4 -4 105 -156 225 -338 197
-298 227 -340 319 -430 112 -111 198 -166 346 -222 130 -49 249 -66 405 -60
230 9 402 73 526 197 58 58 129 158 129 183 0 18 -27 4 -43 -22 -9 -16 -45
-57 -79 -91 -122 -120 -273 -167 -508 -157 -209 9 -374 67 -522 185 -124 99
-172 162 -514 671 l-171 255 177 236 c224 298 247 319 372 328 134 9 64 18
-147 19 -118 0 -215 -4 -215 -8 0 -5 19 -9 43 -9 89 0 117 -43 75 -112 -36
-56 -312 -427 -319 -428 -11 0 -250 369 -276 426 -39 86 -16 114 93 114 30 0
54 3 54 8 0 4 -135 8 -300 8 -167 1 -300 -2 -300 -7z"/>
<path d="M7956 4261 c-5 -8 13 -11 56 -11 76 0 103 -16 118 -68 13 -50 14
-1124 0 -1173 -14 -50 -26 -57 -106 -67 -54 -7 -9 -10 209 -13 152 -2 277 -1
277 2 0 4 -32 9 -72 11 -112 9 -108 -5 -108 332 l0 282 73 -7 c136 -11 170
-47 291 -306 106 -228 135 -271 210 -308 91 -44 180 -28 270 49 23 20 36 38
32 45 -5 8 -17 4 -38 -14 -44 -37 -88 -34 -137 10 -38 34 -61 76 -160 289 -73
156 -120 206 -226 242 -14 4 0 10 48 21 102 21 174 59 242 128 70 69 95 129
95 226 0 152 -99 265 -276 315 -49 14 -121 18 -425 21 -259 4 -369 2 -373 -6z
m655 -21 c131 -25 205 -121 216 -278 10 -146 -29 -267 -104 -325 -55 -41 -124
-57 -265 -63 l-128 -5 0 341 0 340 114 0 c62 0 138 -5 167 -10z"/>
<path d="M6875 4245 c-211 -46 -388 -182 -481 -370 -95 -193 -97 -389 -6 -580
87 -179 232 -299 437 -361 79 -24 108 -27 230 -28 156 -1 242 17 358 74 137
69 256 186 317 315 52 110 65 171 64 300 -1 88 -7 126 -27 190 -75 232 -255
397 -498 455 -99 23 -298 26 -394 5z m253 -25 c286 -47 481 -341 458 -690 -24
-365 -223 -590 -521 -590 -202 0 -360 102 -455 295 -61 122 -74 187 -74 350 0
116 3 154 22 220 64 223 223 379 422 415 64 11 78 11 148 0z"/>
<path d="M1377 573 c-2 -5 0 -21 4 -38 7 -29 7 -29 8 8 1 35 -3 46 -12 30z"/>
<path d="M531 556 c-24 -29 27 -73 53 -46 8 10 7 12 -5 7 -23 -8 -43 8 -35 28
4 11 13 15 26 12 11 -3 18 -1 14 4 -8 14 -40 11 -53 -5z"/>
<path d="M1280 533 c0 -21 4 -33 8 -28 4 6 16 15 27 21 29 16 25 38 -7 42 -26
3 -28 1 -28 -35z m40 17 c0 -5 -7 -10 -16 -10 -8 0 -12 5 -9 10 3 6 10 10 16
10 5 0 9 -4 9 -10z"/>
<path d="M1455 559 c4 -10 0 -19 -9 -22 -26 -10 -19 -37 9 -37 23 0 25 3 19
28 -4 15 -11 32 -16 37 -6 6 -7 4 -3 -6z m5 -39 c0 -5 -4 -10 -10 -10 -5 0
-10 5 -10 10 0 6 5 10 10 10 6 0 10 -4 10 -10z"/>
<path d="M1508 565 c-7 -7 3 -65 11 -65 4 0 5 16 3 35 -4 36 -5 38 -14 30z"/>
<path d="M1578 563 c-22 -6 -24 -51 -3 -60 25 -9 30 5 9 29 -17 19 -17 21 -1
15 11 -4 17 -1 17 8 0 8 -1 14 -2 14 -2 -1 -11 -3 -20 -6z m7 -43 c3 -5 1 -10
-4 -10 -6 0 -11 5 -11 10 0 6 2 10 4 10 3 0 8 -4 11 -10z"/>
<path d="M1627 537 c8 -42 10 -43 15 -8 3 19 0 32 -8 35 -10 4 -12 -3 -7 -27z"/>
<path d="M631 546 c-15 -18 -4 -46 19 -46 29 0 43 25 25 44 -20 20 -29 20 -44
2z m32 -27 c-17 -17 -37 -1 -22 17 8 10 15 12 23 4 7 -7 7 -13 -1 -21z"/>
<path d="M723 553 c-7 -3 -12 -17 -12 -31 2 -24 2 -24 6 -4 2 12 11 22 18 22
7 0 16 -10 18 -22 4 -21 4 -20 6 3 1 27 -14 40 -36 32z"/>
<path d="M786 550 c-2 -3 0 -16 4 -30 6 -25 6 -25 12 -2 8 28 38 30 38 2 0
-11 5 -20 10 -20 14 0 12 37 -2 47 -15 9 -58 12 -62 3z"/>
<path d="M902 551 c-23 -14 -10 -46 18 -46 16 0 26 6 28 19 3 16 -12 36 -28
36 -3 0 -11 -4 -18 -9z m38 -26 c0 -8 -9 -15 -20 -15 -11 0 -20 7 -20 15 0 8
9 15 20 15 11 0 20 -7 20 -15z"/>
<path d="M1062 551 c-21 -13 -10 -46 16 -49 12 -2 22 1 22 7 0 6 -6 8 -14 5
-19 -7 -27 8 -15 26 8 12 12 12 16 3 2 -7 9 -13 15 -13 6 0 6 6 -2 15 -14 17
-20 18 -38 6z"/>
<path d="M1150 545 c-17 -21 -5 -45 22 -44 l23 0 -23 10 c-29 11 -18 32 11 23
19 -6 20 -5 8 10 -17 20 -25 20 -41 1z"/>
<path d="M1680 545 c-10 -12 -10 -18 0 -30 7 -8 18 -15 25 -15 7 0 18 7 25 15
10 12 10 18 0 30 -7 8 -18 15 -25 15 -7 0 -18 -7 -25 -15z m40 -21 c0 -8 -7
-14 -15 -14 -15 0 -21 21 -9 33 10 9 24 -2 24 -19z"/>
<path d="M1777 553 c-4 -3 -7 -18 -6 -32 1 -26 1 -25 10 3 9 31 7 41 -4 29z"/>
<path d="M1813 553 c-7 -2 -13 -17 -12 -31 1 -26 1 -26 7 -4 4 13 12 23 17 23
6 0 13 -10 17 -23 6 -20 7 -19 5 6 -2 30 -12 38 -34 29z"/>
<path d="M404 535 c-3 -8 -3 -19 1 -25 8 -13 42 -13 51 1 4 7 0 9 -14 5 -11
-4 -23 -2 -27 4 -3 6 3 10 14 10 27 0 27 15 0 17 -11 1 -22 -4 -25 -12z"/>
<path d="M980 525 c0 -14 5 -25 10 -25 6 0 10 9 10 19 0 11 6 22 13 24 6 3 2
6 -10 6 -18 1 -23 -5 -23 -24z"/>
<path d="M11743 414 c-24 -30 -21 -50 7 -50 16 0 20 7 20 38 0 21 -1 38 -3 38
-2 0 -13 -12 -24 -26z"/>
<path d="M11876 433 c-3 -3 -6 -21 -6 -39 0 -27 3 -31 20 -27 15 4 18 9 10 18
-8 9 -7 15 2 18 11 4 10 6 0 6 -7 1 -11 5 -7 10 6 11 -9 23 -19 14z"/>
<path d="M401 393 c-1 -24 4 -43 9 -43 6 0 10 7 10 15 0 21 28 19 33 -2 3 -10
5 0 5 22 0 22 -2 32 -5 23 -6 -25 -32 -22 -43 5 -7 18 -9 15 -9 -20z"/>
<path d="M661 418 c0 -10 -7 -18 -13 -18 -9 0 -10 -2 -2 -8 7 -4 14 -16 17
-27 4 -19 5 -19 6 2 1 14 9 23 24 26 22 4 22 4 0 6 -12 0 -24 9 -26 19 -4 16
-5 16 -6 0z"/>
<path d="M1233 390 c0 -25 2 -35 4 -22 2 12 2 32 0 45 -2 12 -4 2 -4 -23z"/>
<path d="M11263 400 c1 -24 7 -36 20 -38 9 -2 17 1 17 7 0 6 -5 10 -12 9 -7
-2 -15 11 -19 27 -7 30 -7 30 -6 -5z"/>
<path d="M11920 399 c0 -17 4 -28 10 -24 11 7 9 55 -2 55 -4 0 -8 -14 -8 -31z"/>
<path d="M12279 425 c-3 -3 -3 -20 -1 -37 l5 -33 8 30 c8 27 0 52 -12 40z"/>
<path d="M1470 385 c0 -19 4 -35 8 -35 4 0 6 16 4 35 -2 19 -6 35 -8 35 -2 0
-4 -16 -4 -35z"/>
<path d="M11400 418 c0 -3 7 -18 15 -34 l14 -28 11 28 c13 36 13 41 -3 27 -10
-8 -17 -7 -25 1 -7 7 -12 9 -12 6z"/>
<path d="M11482 408 c-17 -17 -15 -35 4 -42 25 -9 27 -7 13 11 -11 13 -11 17
-1 20 13 5 17 23 4 23 -4 0 -13 -5 -20 -12z"/>
<path d="M11553 413 c-18 -7 -16 -40 2 -47 22 -8 45 4 45 24 0 14 -23 34 -33
29 -1 0 -8 -3 -14 -6z m33 -14 c10 -17 -13 -36 -27 -22 -12 12 -4 33 11 33 5
0 12 -5 16 -11z"/>
<path d="M11642 411 c-8 -4 -12 -19 -10 -32 3 -23 4 -23 20 9 17 32 14 39 -10
23z"/>
<path d="M11987 414 c-10 -11 -8 -42 3 -49 5 -3 18 -1 27 5 16 11 16 11 1 6
-19 -6 -33 8 -23 24 5 8 12 7 23 -2 13 -11 14 -11 10 2 -5 17 -30 25 -41 14z"/>
<path d="M12077 413 c-12 -11 -8 -41 6 -46 8 -3 20 -1 28 4 11 8 9 9 -6 7 -12
-2 -20 3 -20 12 0 9 7 14 19 12 11 -2 15 1 11 7 -7 12 -28 14 -38 4z"/>
<path d="M12185 412 c-33 -6 -40 -20 -21 -41 17 -18 17 -19 -1 -24 -14 -4 -14
-5 -2 -6 22 -1 51 33 47 56 -2 12 -10 17 -23 15z m15 -28 c0 -9 -5 -14 -12
-12 -18 6 -21 28 -4 28 9 0 16 -7 16 -16z"/>
<path d="M12347 413 c-4 -3 1 -15 10 -25 15 -17 15 -21 3 -29 -13 -9 -13 -10
0 -6 17 4 41 47 34 59 -6 10 -38 11 -47 1z m33 -13 c0 -5 -2 -10 -4 -10 -3 0
-8 5 -11 10 -3 6 -1 10 4 10 6 0 11 -4 11 -10z"/>
<path d="M570 400 c-19 -12 -7 -44 20 -50 15 -4 20 -9 13 -13 -6 -4 -19 -4
-30 -1 -15 6 -16 5 -5 -7 19 -20 46 1 50 38 2 23 -2 32 -16 35 -11 3 -25 2
-32 -2z m33 -25 c1 -5 -6 -11 -15 -13 -11 -2 -18 3 -18 13 0 17 30 18 33 0z"/>
<path d="M900 380 c0 -16 5 -30 10 -30 6 0 10 5 10 11 0 5 5 7 10 4 15 -9 40
14 33 31 -3 8 -18 14 -34 14 -26 0 -29 -4 -29 -30z m50 10 c0 -5 -7 -10 -15
-10 -8 0 -15 5 -15 10 0 6 7 10 15 10 8 0 15 -4 15 -10z"/>
<path d="M1155 394 c-12 -13 -13 -19 -4 -30 19 -23 49 -17 49 10 0 30 -24 40
-45 20z m30 -4 c3 -5 -1 -10 -10 -10 -9 0 -13 5 -10 10 3 6 8 10 10 10 2 0 7
-4 10 -10z m2 -26 c-3 -3 -12 -4 -19 -1 -8 3 -5 6 6 6 11 1 17 -2 13 -5z"/>
<path d="M11340 390 c0 -14 6 -20 23 -19 12 0 16 3 10 6 -7 2 -13 11 -13 19 0
8 -4 14 -10 14 -5 0 -10 -9 -10 -20z"/>
<path d="M507 375 c-2 -15 0 -24 6 -22 13 4 20 47 8 47 -5 0 -11 -11 -14 -25z"/>
<path d="M1003 375 c0 -14 3 -25 8 -25 5 0 9 9 9 19 0 11 8 22 18 24 11 3 8 5
-9 6 -22 1 -26 -3 -26 -24z"/>
<path d="M1070 381 c0 -26 17 -36 35 -21 16 14 20 40 6 40 -5 0 -8 -7 -7 -16
0 -9 -5 -19 -13 -22 -10 -3 -12 1 -8 17 3 11 1 21 -4 21 -5 0 -9 -9 -9 -19z"/>
<path d="M1274 385 c-4 -9 -2 -21 4 -27 16 -16 47 -5 47 17 0 26 -42 34 -51
10z m41 -6 c10 -15 -1 -23 -20 -15 -9 3 -13 10 -10 16 8 13 22 13 30 -1z"/>
<path d="M1350 373 c0 -29 12 -24 17 7 2 11 -2 20 -7 20 -6 0 -10 -12 -10 -27z"/>
<path d="M1402 378 c3 -22 38 -39 38 -19 0 6 -7 8 -15 5 -9 -4 -15 0 -15 9 0
9 8 18 18 20 12 3 11 5 -6 6 -19 1 -23 -3 -20 -21z"/>
<path d="M1522 378 c2 -14 11 -24 23 -26 19 -3 19 -2 1 9 -19 12 -19 12 -1 25
18 13 18 14 -4 14 -17 0 -22 -5 -19 -22z"/>
<path d="M1595 389 c-4 -6 3 -13 16 -16 22 -6 22 -7 3 -14 -18 -7 -18 -8 2 -8
16 -1 22 5 22 24 0 17 -6 25 -19 25 -10 0 -21 -5 -24 -11z"/>
<path d="M12231 384 c0 -11 3 -14 6 -6 3 7 2 16 -1 19 -3 4 -6 -2 -5 -13z"/>
<path d="M784 379 c-3 -5 11 -9 31 -9 20 0 34 4 31 9 -3 5 -17 9 -31 9 -14 0
-28 -4 -31 -9z"/>
<path d="M690 360 c0 -5 5 -10 11 -10 5 0 7 5 4 10 -3 6 -8 10 -11 10 -2 0 -4
-4 -4 -10z"/>
</g>
</svg>
